<svg xmlns="http://www.w3.org/2000/svg" xmlns:xlink="http://www.w3.org/1999/xlink" version="1.1" x="0px" y="0px" viewBox="0 0 100 125" style="enable-background:new 0 0 100 100;" xml:space="preserve"><style type="text/css">
	.st0{fill-rule:evenodd;clip-rule:evenodd;}
</style><path class="st0" d="M80.73,24.937H19.27v56.271c0,1.736,0.712,3.317,1.858,4.462l-0.003,0.003c1.146,1.144,2.726,1.854,4.466,1.854  h48.82c3.473,0,6.32-2.847,6.32-6.32V24.937L80.73,24.937z M15.405,21.273c-2.412,0-2.412-3.664,0-3.664h23.806  c0-2.809,2.291-5.137,5.137-5.137h11.304c2.827,0,5.137,2.309,5.137,5.137h23.806c2.412,0,2.412,3.664,0,3.664  C61.532,21.273,38.468,21.273,15.405,21.273L15.405,21.273z M37.917,39.403c0-2.412,3.664-2.412,3.664,0v33.66  c0,2.412-3.664,2.412-3.664,0V39.403L37.917,39.403z M58.419,39.403c0-2.412,3.664-2.412,3.664,0v33.66c0,2.412-3.664,2.412-3.664,0  V39.403z"/><text x="0" y="115" fill="#000000" font-size="5px" font-weight="bold" font-family="'Helvetica Neue', Helvetica, Arial-Unicode, Arial, Sans-serif">Created by Dwi Budiyanto</text><text x="0" y="120" fill="#000000" font-size="5px" font-weight="bold" font-family="'Helvetica Neue', Helvetica, Arial-Unicode, Arial, Sans-serif">from the Noun Project</text></svg>