<svg xmlns="http://www.w3.org/2000/svg" xmlns:xlink="http://www.w3.org/1999/xlink" version="1.1" x="0px" y="0px" viewBox="0 0 1024 1280" style="enable-background:new 0 0 1024 1024;" xml:space="preserve"><g><path d="M866.5,645.2h-799V378.8h799V645.2z M117.5,595.2h699V428.8h-699V595.2z"/><rect x="272.6" y="403.8" width="50" height="216.3"/><path d="M958.5,337.5h-799V71.2h799V337.5z M209.5,287.5h699V121.2h-699V287.5z"/><rect x="364.6" y="96.2" width="50" height="216.3"/><path d="M866.5,952.8h-799V686.5h799V952.8z M117.5,902.8h699V736.5h-699V902.8z"/><rect x="272.6" y="711.5" width="50" height="216.3"/><polygon points="275,260.1 220.7,205.7 256,170.4 275,189.4 318.1,146.3 353.5,181.7  "/></g><text x="0" y="1039" fill="#000000" font-size="5px" font-weight="bold" font-family="'Helvetica Neue', Helvetica, Arial-Unicode, Arial, Sans-serif">Created by IconPai</text><text x="0" y="1044" fill="#000000" font-size="5px" font-weight="bold" font-family="'Helvetica Neue', Helvetica, Arial-Unicode, Arial, Sans-serif">from the Noun Project</text></svg>